<svg version="1.2" xmlns="http://www.w3.org/2000/svg" viewBox="0 0 1800 1800" width="1800" height="1800"><style>.a{fill:none;stroke:#000;stroke-linecap:round;stroke-linejoin:round;stroke-width:100}.b{fill:none;stroke:#000;stroke-linecap:round;stroke-linejoin:round;stroke-width:50}</style><path class="a" d="m269 682h1261v436h-1261z"/><path class="b" d="m725 316h350v128h-350zm22-238h309v118h-309zm255.9 133.4h5v93.7h-5zm-207-1h5v93.7h-5zm-50 236.6h5v100.9h-5zm299.4 10.4h5v89h-5z"/><path class="b" d="m725 1515h350v128h-350zm22-238h309v118h-309zm255.9 133.4h5v93.7h-5zm-207-1h5v93.7h-5zm-50 236.6h5v100.9h-5zm299.4 10.4h5v89h-5z"/></svg>